<?xml version="1.0" encoding="UTF-8"?>
<svg id="Capa_1" data-name="Capa 1" xmlns="http://www.w3.org/2000/svg" viewBox="0 0 152.24 58.74">
  <defs>
    <style>
      .cls-1, .cls-2 {
        stroke-width: 0px;
      }

      .cls-2 {
        fill: #fff;
      }
    </style>
  </defs>
  <path class="cls-2" d="m70.06,14.71l-1.34.11c.27.51.4,1.09.37,1.67.08.83-.25,1.65-.87,2.2-.9.54-1.95.77-3,.68-.63.01-1.26-.05-1.88-.18-.15.2-.23.45-.24.7,0,.21.07.41.21.56.2.16.44.25.69.26l3.38.54c.66.05,1.29.33,1.77.79.37.5.55,1.12.51,1.75.04.59-.11,1.17-.41,1.68-.32.44-.79.75-1.32.87-.84.2-1.71.28-2.57.26-.87.02-1.75-.06-2.6-.26-.54-.12-1.02-.42-1.36-.86-.29-.49-.43-1.06-.4-1.63-.02-.45.09-.9.33-1.28.31-.37.69-.66,1.12-.86-.21-.15-.37-.35-.48-.58-.11-.24-.17-.5-.17-.76,0-.29.06-.57.19-.83.11-.25.29-.47.52-.63-.39-.2-.7-.52-.89-.92-.19-.46-.29-.96-.27-1.46-.02-.58.11-1.16.38-1.67.28-.45.71-.78,1.21-.93.74-.22,1.52-.31,2.29-.29.69-.02,1.39.06,2.06.22h2.86l-.09.85Zm-2.06,8.31c-.09-.18-.25-.31-.44-.37-.33-.1-.66-.18-1-.23l-3.08-.43c-.29.21-.53.48-.72.78-.16.31-.24.65-.22,1-.03.35.05.7.24,1,.21.25.5.41.82.45.57.09,1.16.13,1.74.12.56-.01,1.12-.08,1.66-.21.32-.05.61-.21.83-.45.19-.3.27-.65.24-1,.02-.22,0-.45-.07-.66Zm-.91-5.31c.39-.31.59-.8.54-1.29.05-.49-.15-.97-.53-1.29-1.2-.51-2.56-.51-3.76,0-.38.31-.59.8-.54,1.29-.05.49.15.98.54,1.29,1.2.51,2.55.51,3.75,0Z"/>
  <path class="cls-2" d="m77.67,13.59l-.19,1.48h-.48c-.49,0-.97.1-1.43.27-.66.26-1.31.55-1.94.88v6.63h-1.63v-9h1.22l.17,1.43c1.06-.97,2.42-1.56,3.86-1.65,0,0,.42-.04.42-.04Z"/>
  <path class="cls-2" d="m87.13,13.81v9h-1.26l-.11-1.32c-.61.47-1.29.87-2,1.17-.61.25-1.25.39-1.91.39-.67.06-1.34-.15-1.85-.59-.45-.51-.68-1.18-.63-1.86v-6.79h1.63v6.35c-.06.43.06.86.32,1.2.3.26.69.38,1.08.35.48,0,.95-.11,1.39-.31.61-.29,1.21-.62,1.77-1v-6.59s1.57,0,1.57,0Z"/>
  <path class="cls-2" d="m97.56,14.78c.57,1.11.83,2.35.75,3.6.03.93-.1,1.86-.38,2.75-.18.61-.58,1.14-1.11,1.49-.59.32-1.26.48-1.93.45-1.18,0-2.33-.32-3.34-.93,0,.42.06,1,.06,1.82v2.62h-1.61v-12.77h1.3l.13,1.45c.49-.53,1.08-.95,1.74-1.23.63-.28,1.31-.43,2-.44.96-.09,1.88.37,2.39,1.19Zm-1.77,6.63c.35-.23.6-.59.69-1,.16-.65.23-1.33.21-2,.01-.67-.05-1.34-.2-2-.09-.41-.31-.79-.64-1.06-.34-.23-.75-.35-1.16-.33-.49,0-.96.12-1.4.33-.59.28-1.16.61-1.68,1v4.83l.8.21c.37.11.76.19,1.14.25.33.05.67.08,1,.08.43,0,.86-.1,1.24-.31Z"/>
  <path class="cls-2" d="m107.11,14.06c.61.32,1.09.85,1.34,1.5.31.89.46,1.84.42,2.78.04.95-.11,1.89-.42,2.79-.24.65-.72,1.18-1.34,1.5-.79.34-1.64.5-2.49.46-.85.03-1.7-.12-2.49-.46-.62-.31-1.1-.85-1.35-1.5-.3-.9-.44-1.84-.41-2.79-.03-.94.11-1.89.41-2.78.25-.65.73-1.18,1.35-1.5.78-.35,1.63-.51,2.49-.47.86-.04,1.71.12,2.49.47Zm-4,1.17c-.38.22-.67.58-.8,1-.18.67-.26,1.37-.24,2.07-.02.7.06,1.4.24,2.07.13.42.42.78.8,1,1,.4,2.12.4,3.12,0,.39-.22.68-.58.81-1,.18-.67.26-1.37.24-2.07.02-.7-.06-1.4-.24-2.07-.13-.43-.42-.78-.81-1-1-.41-2.12-.41-3.12,0Z"/>
  <path class="cls-1" d="m70.79,30.58c.76.1,1.52.28,2.24.55l-.38,1.78c-1.43-.1-2.69-.15-3.78-.15-.88-.04-1.75.11-2.56.45-.62.31-1.09.85-1.31,1.5-.3.97-.43,1.98-.4,3-.04,1.04.1,2.07.4,3.06.22.66.7,1.21,1.32,1.52.81.33,1.69.48,2.56.44,1.38.04,2.76-.04,4.12-.24l.26,1.86c-.75.26-1.52.46-2.31.58-.85.13-1.71.2-2.57.2-1.35.06-2.7-.19-3.95-.72-.96-.48-1.71-1.3-2.09-2.31-.48-1.39-.7-2.85-.64-4.32-.06-1.48.17-2.95.66-4.34.39-1,1.14-1.83,2.1-2.31,1.24-.53,2.58-.78,3.92-.72.81,0,1.61.06,2.41.17h0Z"/>
  <path class="cls-1" d="m86.56,31.44c.91.96,1.35,2.27,1.21,3.59v9.75h-2.18l-.32-2.21c-.7.71-1.52,1.29-2.41,1.72-.98.5-2.07.76-3.18.75-1.13.07-2.24-.29-3.11-1-.8-.75-1.23-1.83-1.16-2.93v-1.49c-.07-.97.3-1.91,1-2.58.83-.66,1.87-.99,2.92-.92h5.67v-1.09c.06-.65-.16-1.3-.61-1.78-.65-.39-1.42-.57-2.18-.49-1.05,0-3.03.12-5.93.35l-.26-2c1-.19,2.21-.35,3.48-.47,1.1-.12,2.21-.18,3.32-.19,1.32-.12,2.65.23,3.74.99h0Zm-7.85,10.79c.44.34.99.51,1.54.46.8-.02,1.6-.18,2.34-.49.89-.34,1.71-.85,2.41-1.49v-2.5h-5.12c-.48-.03-.95.14-1.29.48-.27.38-.4.84-.37,1.3v.72c-.05.55.12,1.1.49,1.52Z"/>
  <path class="cls-1" d="m99.34,30.54c1.14.09,2.16.21,3.06.36l-.23,2c-.27,0-.69,0-1.27-.06l-1.69-.06h-2.35c-.69,0-1.38.02-2.07.08-.34,0-.67.15-.91.4-.22.31-.32.69-.29,1.07-.03.35.05.7.22,1,.14.2.33.36.55.46.23.09.64.23,1.21.4l4,1c.95.18,1.82.64,2.52,1.31.56.75.83,1.68.75,2.62.06.9-.16,1.8-.63,2.57-.47.61-1.15,1.03-1.91,1.18-1.17.23-2.35.33-3.54.3-1.86,0-3.73-.13-5.57-.4l.2-2.07c1.07.1,2.67.14,4.79.14.82,0,1.63-.03,2.44-.12.44-.04.85-.21,1.18-.51.25-.31.37-.7.34-1.09.02-.33-.06-.65-.24-.93-.16-.21-.37-.38-.62-.47-.25-.1-.67-.22-1.26-.38l-3.9-1c-.95-.18-1.81-.66-2.47-1.36-.53-.77-.78-1.7-.72-2.63-.05-.83.14-1.66.55-2.39.37-.61.95-1.06,1.64-1.25,1.02-.25,2.06-.36,3.11-.33.94.03,1.97.07,3.11.16h0Z"/>
  <path class="cls-1" d="m109.85,32.94v7.77c-.05.49.1.99.42,1.37.4.31.91.46,1.42.41h2l.31,2.22c-.53.13-1.07.22-1.62.27-.56.06-1.12.1-1.68.1-1.01.07-1.99-.29-2.71-1-.67-.82-1-1.86-.93-2.91v-8.23h-2.55v-2l2.55-.14v-4.09h2.75v4.11h4.33v2.15s-4.29-.03-4.29-.03Z"/>
  <path class="cls-1" d="m119.78,25.62v1.61c.06.4-.22.77-.62.83-.06,0-.13.01-.19,0h-1.32c-.39.05-.75-.23-.8-.63v-1.81c-.05-.39.22-.75.61-.8h1.54c.39-.04.74.24.78.63,0,.06,0,.11,0,.17Zm-.09,19.16h-2.75v-14h2.75v14Z"/>
  <path class="cls-1" d="m126.6,40.71c-.1.88.53,1.68,1.41,1.79.14.02.29,0,.43,0h1.29l.32,2.15c-.39.14-.8.23-1.22.27-.48.06-.97.1-1.45.1-.96.04-1.9-.32-2.58-1-.69-.73-1.05-1.71-1-2.71v-16.59h2.78l.02,16h0Z"/>
  <path class="cls-1" d="m135,40.71c-.11.88.51,1.68,1.39,1.79.15.02.29.02.44,0h1.3l.31,2.15c-.39.14-.8.23-1.22.27-.48.06-.97.1-1.45.1-.96.04-1.9-.32-2.58-1-.67-.74-1-1.72-.94-2.71v-16.59h2.75v16h0Z"/>
  <path class="cls-1" d="m151,31.44c.91.96,1.35,2.27,1.21,3.59v9.75h-2.21l-.32-2.21c-.7.71-1.52,1.29-2.41,1.72-.98.5-2.07.76-3.18.75-1.13.07-2.24-.29-3.11-1-.8-.75-1.23-1.83-1.16-2.93v-1.49c-.07-.97.3-1.91,1-2.58.83-.66,1.87-.99,2.92-.92h5.62v-1.09c.06-.65-.16-1.3-.6-1.78-.65-.39-1.42-.57-2.18-.49-1.05,0-3.03.12-5.93.35l-.26-2c1-.19,2.21-.35,3.48-.47,1.1-.12,2.21-.18,3.32-.19,1.35-.13,2.7.22,3.81.99Zm-7.86,10.79c.44.34.99.51,1.55.46.8-.02,1.6-.18,2.34-.49.88-.34,1.68-.85,2.37-1.49v-2.5h-5.1c-.49-.03-.96.15-1.3.5-.27.38-.4.84-.37,1.3v.7c-.05.55.12,1.1.49,1.52h.02Z"/>
  <path class="cls-1" d="m44.1,38.6l-3.78-3.35-3.32,3.81c-1.13,1.27-2.51,2.3-4.06,3-1.54.73-3.23,1.11-4.94,1.1-1.64.02-3.27-.32-4.76-1-1.51-.69-2.87-1.68-4-2.9-1.21-1.31-2.16-2.82-2.82-4.47-1.37-3.48-1.37-7.36,0-10.84.65-1.65,1.61-3.17,2.82-4.47,1.13-1.22,2.49-2.21,4-2.9,1.49-.68,3.12-1.02,4.76-1,1.7,0,3.37.36,4.91,1.07,1.57.72,2.96,1.76,4.09,3.06l3.33,3.8,3.77-3.4,4.11-3.63,3.79-3.37-3.38-3.78c-2.58-2.84-5.69-5.15-9.16-6.79-7.13-3.33-15.35-3.39-22.52-.17-1.86.86-3.63,1.91-5.28,3.13l6.51,6.51c1.91,1.94,1.91,5.06,0,7l-12.62,12.7c-.95.92-2.23,1.43-3.55,1.4-.69,0-1.37-.13-2-.4.27,2.78.95,5.5,2,8.08,1.4,3.44,3.43,6.59,6,9.27,2.54,2.65,5.57,4.79,8.92,6.31,7.17,3.22,15.39,3.16,22.52-.17,3.48-1.63,6.59-3.94,9.16-6.79l3.4-3.81-3.82-3.37s-4.08-3.63-4.08-3.63Z"/>
  <path class="cls-2" d="m0,3.44v25.13c1.03,1.04,2.71,1.05,3.75.02l.02-.02,11.55-11.55c1.04-1.03,1.05-2.71.02-3.75l-.02-.02L3.77,1.71C2.73.67,1.04.67,0,1.71v1.73"/>
</svg>